<?xml version="1.0" standalone="yes"?>
<svg xmlns="http://www.w3.org/2000/svg" width="512" height="512">
<path style="fill:#000000; stroke:none;" d="M0 0L0 234C3.62726 225.359 2.80399 213.337 4.88426 204C9.52845 183.155 16.3394 163.386 25.3094 144C54.6271 80.6387 115.306 30.084 182 10.5756C198.715 5.68649 216.47 1.01157 234 1C227.806 -1.59906 218.686 0 212 0L165 0L0 0z"/>
<path style="fill:#0d2636; stroke:none;" d="M234 0.424377C219.177 2.37161 204.521 4.05338 190 7.88428C159.038 16.0529 129.886 30.2169 104 49.0108C77.596 68.1806 54.4677 93.0412 37.6011 121C-17.3751 212.131 -12.1524 330.845 54.2106 415C70.7559 435.981 90.8132 454.447 113 469.329C137.648 485.863 165.221 497.912 194 505.105C223.89 512.576 256.428 514.42 287 510.715C324.532 506.165 359.755 493.382 392 473.797C417.496 458.311 440.162 437.524 458.424 414C477.233 389.771 491.864 362.318 500.975 333C531.608 234.423 499.026 123.061 419 57.463C391.68 35.0688 359.903 18.7293 326 9C303.403 2.51526 280.42 0 257 0C249.4 0 241.545 -0.566772 234 0.424377z"/>
<path style="fill:#000000; stroke:none;" d="M278 0C286.604 3.61154 298.684 2.8085 308 4.88425C329.209 9.60959 349.353 16.4753 369 25.7809C428.456 53.941 474.287 107.942 497.05 169C504.579 189.194 510.94 212.306 511 234C513.599 227.806 512 218.686 512 212L512 165L512 0L278 0M200 420C175.555 421.929 150.12 424.277 132.465 402.996C124.985 393.981 122.344 382.553 115.781 373C109.98 364.557 102.399 360.281 95.1088 353.535C92.7061 351.312 90.0377 347.59 93.3333 344.858C97.4731 341.426 105.418 343.026 110 344.52C126.024 349.743 132.249 363.053 142.326 374.996C153.006 387.655 169.2 391.69 185 388.916C189.484 388.129 195.987 387.363 199.487 384.181C202.817 381.154 202.892 375.018 204.464 371C206.879 364.826 211.351 359.953 214 354C183.736 353.375 150.322 339.332 131.9 315C114.803 292.419 109.134 257.552 113.439 230C115.211 218.657 119.128 207.923 124.876 198C127.297 193.82 131.085 190.305 133.204 186C135.729 180.869 131.957 172.464 131.286 167C130.098 157.328 131.529 147.379 133.873 138C135.318 132.222 136.551 124.284 144.001 124.148C157.093 123.909 171.905 131.157 183 137.424C187.932 140.211 193.448 144.995 199 146.261C204.423 147.497 211.672 144.337 217 143.211C227.732 140.942 239.049 139.519 250 139.039C263.581 138.445 277.641 140.015 291 142.424C297.401 143.579 305.545 147.159 312 146.549C317.159 146.061 322.585 141.231 327 138.719C336.174 133.501 345.746 128.857 356 126.156C360.576 124.95 368.572 122.355 372.725 125.603C375.998 128.163 376.907 133.206 377.873 137C380.517 147.392 382.08 158.308 380.41 169C379.71 173.479 377.023 179.532 378.039 184C379.264 189.396 385.012 194.16 387.688 199C393.187 208.948 397.238 219.67 398.711 231C402.201 257.846 397.357 290.498 381.56 313C363.563 338.635 328.94 353.361 298 354C301.173 360.937 306.303 366.466 308.56 374C314.156 392.679 312 413.739 312 433L312.001 455C312.023 459.301 312.226 463.557 316.109 466.258C325.124 472.53 341.767 462.84 350 458.752C380.187 443.765 407.007 424.312 428.389 398C491.832 319.928 497.166 202.982 435.346 122C421.492 103.852 405.605 87.7237 387 74.4275C321.005 27.265 234.567 19.534 161 53.3087C134.135 65.6424 111.396 83.8532 91.0108 105C72.7879 123.904 58.5464 147.709 48.8002 172C39.0763 196.235 33 222.827 33 249C33 275.605 35.3785 301.624 44.0787 327C61.6962 378.385 97.4021 423.414 145 450.139C156.445 456.565 168.459 462.614 181 466.641C186.288 468.339 193.35 469.077 197.566 464.606C200.882 461.09 200 455.432 200 451L200 420M511 278C510.981 306.467 501.031 336.398 489.309 362C461.004 423.817 408.567 472.451 345 496.424C324.133 504.293 300.457 510.985 278 511C284.194 513.599 293.314 512 300 512L347 512L512 512L512 347L512 300C512 293.314 513.599 284.194 511 278M0 279L0 512L234 512C229.863 510.263 224.489 510.501 220 509.87C212.621 508.832 205.284 507.35 198 505.789C178.763 501.669 159.576 494.518 142 485.73C84.0125 456.736 38.2617 405.555 15.4252 345C10.1863 331.108 6.34341 316.582 3.61111 302C2.25655 294.771 2.81645 285.697 0 279z"/>
</svg>
